<svg xmlns="http://www.w3.org/2000/svg" width="155" height="154" viewBox="0 0 155 154"><g><g><path fill="#fff" d="M154.199 77c0 42.527-34.498 77.001-77.054 77.001L77.07 154l-.074.001C34.466 154.001-.011 119.527-.011 77H.09a76.579 76.579 0 0 1 10.32-38.477l-.08-.05C23.03 16.552 46.212 1.471 73.028.108l.3-.015a78.485 78.485 0 0 1 3.668-.097L77.07 0l.075-.002c1.233 0 2.456.04 3.674.097l.281.014c26.839 1.359 50.042 16.44 62.75 38.364l-.14.09A76.611 76.611 0 0 1 154.003 77zM80.987 2.096c-.086-.004-.173-.01-.26-.013a76.446 76.446 0 0 0-3.657-.092 76.696 76.696 0 0 0-3.65.092l-.279.014C33.548 4.177 2.084 36.915 2.084 77c0 41.401 33.566 74.967 74.986 75.008 41.395-.04 74.941-33.607 74.941-75.008 0-40.089-31.45-72.829-71.024-74.904z"/></g></g></svg>