<svg xmlns="http://www.w3.org/2000/svg" width="189" height="154" viewBox="0 0 189 154"><g><g><path fill="#fff" d="M184.57 74.515l-4.364-4.446 1.406-1.405 6.934 6.845-6.517 6.969-1.451-1.45 3.991-4.526h-29.826s.002-.336.002.498c0 42.527-34.498 77.001-77.054 77.001C35.136 154.001.637 119.527.637 77 .637 34.472 35.136-.003 77.691-.003c28.505 0 53.376 15.48 66.705 38.475l-1.68 1.076c-12.972-22.444-37.224-37.56-65.025-37.56-41.455 0-75.06 33.584-75.06 75.012 0 41.426 33.605 75.01 75.06 75.01 41.455 0 75.061-33.584 75.061-75.01 0-.834-.036-1.658-.063-2.485z"/></g></g></svg>