<svg xmlns="http://www.w3.org/2000/svg" width="294" height="421" viewBox="0 0 294 421"><g><g clip-path="url(#clip-3779)"><path fill="#626262" d="M93.997 0c5.064.377 10.542.893 15.055 2.771 8.613 3.586 15.579 9.88 20.835 16.871 13.539 18.009 21.857 35.278 19.51 64.59-.821 10.25-2.978 21.178-5.3 30.61l-3.612 18.918c-1.204 5.904-2.41 11.81-3.613 17.715l.361.12c17.056-4.409 32.684-12.163 50.22-16.389 7.41-1.785 15.441-.943 21.438-.24l.482-.121 6.864 1.807c12.203 4.754 21.205 13.76 26.375 25.547 3.29 7.5 3.367 18.574 7.949 24.945 4.405 6.124 11.21 7.145 17.463 10.966 7.606 4.649 14.532 12.384 18.667 20.486 6.295 12.333 9.565 30.425 5.54 45.792-1.588 6.06-4.396 10.994-5.54 17.352-2.276 12.651 8.006 26.1 6.142 40.008-1.017 7.587-2 14.234-4.697 20.847-1.796 4.405-4.812 7.327-5.66 12.774-1.288 8.268 3.785 15.017 5.66 21.69 3.332 11.856 3.453 25.215-.722 35.55-8.622 21.337-32.364 27.004-54.798 34.705l-65.515 21.932c-27.386 10.902-64.038 21.954-95.143 14.099-15.36-3.88-30.858-8.616-43.236-15.786-9.51-5.51-18.204-14.118-30.229-15.907-7.269-1.081-13.974 2.733-19.028 4.82l-35.769 11.81c-6.477 2.218-15.072 5.8-22.28 2.892-13.009-5.247-17.145-29.487-22.04-43.382l-36.13-106.044-7.828-22.896c-2.16-6.107-5.657-14.408-3.974-21.691 2.663-11.52 14.71-13.467 24.93-17.594 7.938-3.205 16.43-6.351 25.05-8.676 7.656-2.065 14.581-3.266 21.076-6.266 6.331-2.925 11.426-7.305 16.74-11.207 8.799-6.461 14.517-17.152 20.474-26.511l15.656-24.463c15.411-24.332 32.328-47.554 47.692-72.062 6.386-10.187 13.57-20.001 19.149-30.97 6.656-13.088 11.756-28.963 15.897-43.984 2.818-10.22 4.375-21.77 11.562-27.836C73.817 4.09 79.39 2.099 85.808.843L93.998 0zm-1.445 29.042C81.927 34.673 82.488 49.444 79.184 62.3c-4.372 17.015-10.813 32.988-19.63 45.792-6.866 9.97-15.334 18.3-22.16 28.198l-42.032 66.88c-7.217 11.751-14.635 23.22-21.919 34.706-4.889 7.708-9.693 16.259-16.86 21.69-19.36 14.674-47.493 21.065-73.104 29.404l-.24.482 33.119 98.211 12.284 36.513c1.767 4.985 2.723 11.162 5.42 15.424 15.605-4.674 30.064-11.01 46.126-15.424 6.757-1.857 14.552-5.868 22.039-4.459 11.373 2.142 15.82 7.562 24.087 13.015 7.48 4.935 15.451 9.527 23.846 12.894 39.243 15.741 77.994 10.836 113.689-9.279l-11.2-41.694-10.84-3.977c-10.404-5.32-17.671-12.987-23.002-23.86-2.392-4.88-1.78-10.253-3.011-16.63-2.28-11.8-4.343-20.369-12.405-26.511-2.46-1.874-5.644-5.073-9.394-5.423-7.542 7.696-16.235 15.097-24.809 21.691-4.501 3.462-8.906 8.355-14.452 10.605-4.19 1.7-15.11.694-19.39-.362-.532-3.165 6.103-15.51 7.949-17.594l6.503-4.459c12.101-8.907 22.896-20.992 28.543-36.271 5.154-13.947 5.31-32.78.963-48.082-3.294-11.597-10.191-24.455-7.466-39.044 2.196-11.76 7.11-19.74 13.609-27.354 3.235-3.791 8.029-6.413 10.598-10.846l8.43-26.39c6.605-19.891 14.925-42.986 14.813-65.314-.057-11.38-5.048-21.646-8.67-30.246-1.347-3.195-1.92-6.724-3.975-9.159-3.064-3.631-8.706-5.785-14.09-6.386zM197.45 163.163l-4.215.724-14.934 5.06-49.017 16.63c-7.92 2.728-22.486 5.585-27.097 11.328-6.907 8.6-1.878 25.485 3.854 33.018 6.612 8.69 15.32 6.123 25.411 2.651l60.217-20.365c8.365-2.88 20.216-4.798 24.93-11.448 6.061-8.552-2.881-30.388-8.792-34.585-2.884-2.048-6.044-2.873-10.357-3.013zm47.45 58.084l-7.225 1.205-85.629 29.162c-11.427 3.93-31.681 8.05-38.538 16.027-6.171 7.177-.351 22.608 3.01 28.68 6.165 11.135 16.653 10.359 28.543 5.423l81.534-27.837c9.85-3.515 27.788-6.564 34.203-13.255 8.2-8.554-.438-31.886-7.347-36.634-2.4-1.65-4.8-2.591-8.55-2.771zm-2.167 73.267l-4.817.964-15.657 5.423c-16.1 5.532-32.779 10.974-48.655 16.75-9.095 3.308-21.997 4.65-27.7 11.448-6.831 8.143-.92 24.302 3.975 31.33 4.612 6.625 13.518 8.158 22.641 4.7l62.746-21.329c8.805-3.37 20.257-4.66 25.291-11.81 6.282-8.922-1.43-29.565-7.708-34.464-2.713-2.117-6.076-2.75-10.116-3.012zm0 72.664c-1.727.784-5.68.45-7.828 1.085l-24.81 8.315c-16.735 5.789-35.844 10.135-27.579 33.982 1.429 4.122 3.075 8.838 6.142 11.327 2.852 2.315 5.992 3.298 9.996 3.977 5.894 1 13.05-2.414 17.463-4.097l25.773-8.676c6.426-2.23 13.49-3.79 16.74-9.159 6.074-10.03-2.073-29.646-8.55-34.102-2.09-1.438-4.624-1.632-7.347-2.652z"/></g></g></svg>