<svg xmlns="http://www.w3.org/2000/svg" width="1526" height="2959" viewBox="0 0 1526 2959"><g><g><path fill="#232323" d="M568.033 347.991c12.055 85.917-4.362 160.816-49.2 224.658-44.862 63.875-108.415 101.573-190.627 113.118-82.24 11.55-153.713-7.186-214.391-56.24C53.112 580.504 16.745 513.02 4.689 427.103-7.536 339.979 8.723 264.165 53.5 199.686 98.25 135.21 161.758 97.196 244 85.647c82.212-11.545 153.728 7.507 214.52 57.161 60.763 49.658 97.289 118.06 109.514 205.183zm-197.028 990.64l-66.276 9.307L916.703 9.948 984.82.382zm900.16-407.983c12.056 85.917-4.361 160.815-49.199 224.657-44.862 63.875-108.415 101.573-190.627 113.118-82.24 11.55-153.713-7.186-214.391-56.24-60.704-49.022-97.07-116.507-109.126-202.422-12.225-87.126 4.035-162.939 48.812-227.418 44.748-64.476 108.257-102.49 190.498-114.04 82.212-11.545 153.728 7.507 214.52 57.161 60.764 49.659 97.289 118.06 109.514 205.184zM321.233 636.064c65.039-9.133 114.713-40.806 149.043-95.077 34.305-54.24 46.651-115.719 37.005-184.463-9.816-69.953-38.733-126.576-86.729-169.902-48.02-43.295-104.539-60.405-169.578-51.272-63.83 8.964-113.169 40.94-147.993 95.868C68.13 286.18 55.626 348.62 65.442 418.572c9.472 67.508 38.508 122.882 87.132 166.091 48.6 43.242 104.827 60.364 168.658 51.401zm447.342 365.164c9.647 68.745 38.406 124.451 86.342 167.142 47.91 42.722 104.38 59.488 169.449 50.35 65.039-9.133 114.713-40.805 149.042-95.077 34.306-54.24 46.652-115.719 37.006-184.463-9.816-69.953-38.734-126.576-86.729-169.902-48.02-43.295-104.54-60.405-169.578-51.271-65.067 9.137-114.693 41.154-148.913 95.998-34.246 54.875-46.434 117.27-36.619 187.223zm232.64 913.532c-25.076 83.055-71.383 144.17-138.856 183.332-67.508 39.181-141.012 46.76-220.49 22.774-79.505-23.995-136.537-70.97-171.06-140.945-34.557-69.954-39.28-146.469-14.204-229.524 25.43-84.222 71.976-146.235 139.662-186 67.657-39.774 141.253-47.66 220.759-23.665 79.477 23.987 136.417 71.267 170.79 141.835 34.346 70.557 38.828 147.97 13.399 232.193zm-594.208 816.763l-64.071-19.337 1116.553-958.142 65.851 19.874zm988.277 7.006c-25.077 83.055-71.383 144.17-138.856 183.33-67.509 39.183-141.012 46.762-220.49 22.775-79.506-23.995-136.537-70.969-171.06-140.943-34.558-69.955-39.28-146.47-14.204-229.525 25.429-84.223 71.976-146.235 139.661-186.001 67.658-39.774 141.253-47.659 220.759-23.664 79.478 23.986 136.417 71.267 170.79 141.834 34.346 70.559 38.828 147.97 13.4 232.194zm-738.908-665.71c62.876 18.975 121.252 11.047 175.173-23.831 53.885-34.86 90.87-85.498 110.934-151.953 20.417-67.623 17.903-131.153-7.506-190.61-25.444-59.439-69.583-98.668-132.458-117.645-61.708-18.624-119.907-10.278-174.552 24.988-54.681 35.286-92.212 86.731-112.63 154.355-19.703 65.26-16.558 127.706 9.47 187.32 25.993 59.633 69.861 98.752 131.57 117.376zm253.03 519.072c-20.064 66.455-17.31 129.087 8.311 187.941 25.585 58.873 69.824 97.77 132.728 116.755 62.876 18.976 121.252 11.048 175.173-23.831 53.885-34.859 90.869-85.498 110.933-151.952 20.417-67.624 17.903-131.154-7.505-190.612-25.445-59.437-69.583-98.668-132.459-117.644-62.904-18.983-121.38-10.722-175.442 24.72-54.097 35.463-91.322 87-111.739 154.623z"/></g></g></svg>