<svg xmlns="http://www.w3.org/2000/svg" width="1660" height="719" viewBox="0 0 1660 719"><g><g clip-path="url(#clip-3213)"><path fill="#2c2c2c" d="M372.5 349.337c-16.594 41.217-43.011 70.27-79.219 87.154-36.226 16.892-74.062 17.39-113.499 1.512-39.45-15.883-66.387-42.458-80.788-79.735-14.421-37.267-13.325-76.514 3.27-117.731 16.827-41.797 43.408-71.296 79.752-88.478 36.329-17.188 74.226-17.838 113.677-1.955 39.437 15.878 66.312 42.605 80.61 80.177 14.285 37.565 13.025 77.26-3.803 119.056zm-340.479 389.4L.23 725.937l613.366-437.58 32.676 13.156zM535.75 787.6c-16.594 41.217-43.012 70.27-79.219 87.154-36.226 16.893-74.062 17.39-113.5 1.513-39.45-15.884-66.386-42.459-80.788-79.735-14.42-37.268-13.324-76.514 3.27-117.731 16.828-41.797 43.41-71.296 79.752-88.479 36.33-17.188 74.227-17.838 113.677-1.954 39.438 15.877 66.312 42.605 80.611 80.176 14.285 37.566 13.025 77.26-3.803 119.056zM189.382 414.16c31.2 12.56 61.336 11.191 90.435-4.13 29.08-15.311 50.262-39.447 63.54-72.426 13.511-33.56 15.14-66.081 4.904-97.575-10.255-31.485-30.969-53.52-62.168-66.08-30.62-12.328-60.685-10.738-90.171 4.747-29.506 15.493-51.004 40.016-64.515 73.574-13.04 32.386-14.296 64.384-3.752 95.986 10.525 31.61 31.107 53.575 61.727 65.903zm105.273 276.374c-13.277 32.979-14.742 65.054-4.37 96.25 10.352 31.203 31.133 53.072 62.346 65.638 31.199 12.562 61.336 11.193 90.435-4.128 29.08-15.312 50.262-39.448 63.54-72.427 13.51-33.559 15.139-66.081 4.904-97.574-10.255-31.486-30.97-53.52-62.169-66.081-31.212-12.566-61.416-11.032-90.612 4.57-29.216 15.61-50.563 40.193-64.074 73.752zM1228.9 58.03c16.045 41.434 16.605 80.697 1.704 117.765-14.91 37.086-42.197 63.301-81.841 78.653-39.659 15.357-77.485 14.357-113.47-3.022-35.993-17.359-62.008-46.765-78.052-88.199-16.271-42.017-17.017-81.719-2.22-119.096 14.783-37.373 42.01-63.74 81.67-79.098 39.644-15.352 77.529-14.198 113.64 3.466 36.098 17.67 62.299 47.514 78.569 89.531zm17.448 516.966l-31.96 12.376 148.89-738.597 32.848-12.72zm401.198-308.495c16.045 41.435 16.606 80.698 1.704 117.765-14.91 37.087-42.196 63.301-81.841 78.654-39.659 15.357-77.485 14.356-113.47-3.022-35.992-17.36-62.007-46.765-78.052-88.2-16.27-42.016-17.017-81.718-2.22-119.096 14.783-37.372 42.01-63.74 81.67-79.098 39.644-15.351 77.53-14.198 113.64 3.466 36.098 17.67 62.299 47.515 78.57 89.531zm-508.065-36.023c31.363-12.145 52.433-33.735 63.213-64.804 10.771-31.05 9.747-63.146-3.09-96.299-13.064-33.736-34.096-58.595-63.088-74.598-29-15.983-59.18-17.919-90.544-5.774-30.78 11.92-51.647 33.623-62.597 65.076-10.958 31.473-9.901 64.068 3.162 97.803 12.607 32.557 33.552 56.78 62.844 72.65 29.283 15.89 59.319 17.866 90.1 5.946zm265.702 129.875c12.838 33.153 33.685 57.574 62.572 73.267 28.879 15.71 58.995 17.48 90.372 5.33 31.363-12.146 52.433-33.736 63.213-64.805 10.771-31.05 9.748-63.146-3.09-96.299-13.064-33.735-34.096-58.595-63.088-74.598-29-15.983-59.18-17.919-90.544-5.774-31.377 12.15-52.382 33.908-63.04 65.248-10.668 31.36-9.458 63.896 3.605 97.631z"/></g></g></svg>