<svg xmlns="http://www.w3.org/2000/svg" width="88" height="101" viewBox="0 0 88 101"><g><g><path fill="#fff" d="M57.986 55.037h-44.27v-1.93h44.27zm0 9.656h-44.27v-1.931h44.27zm0 9.656h-44.27v-1.931h44.27zm0-28.968h-44.27v-1.93h44.27zm0-9.655h-44.27v-1.931h44.27zM26.28 22.11a6.184 6.184 0 0 1-6.186 6.083 6.184 6.184 0 0 1-6.186-6.083v-8.497h1.933v8.4a4.25 4.25 0 0 0 4.253 4.249 4.25 4.25 0 0 0 4.253-4.249V10.331H2.116v87.771h47.46v-20.76l.587.034.002-.034h19.324V10.331H26.28zM6.228 8.4a10.15 10.15 0 0 1 10-8.4 10.15 10.15 0 0 1 10.001 8.4h45.193v70.874h-.09l.026.03L51.51 99.995v.038h-.037l-.061.064-.064-.064H.183V8.4zm10-6.469A8.217 8.217 0 0 0 8.197 8.4H24.26a8.217 8.217 0 0 0-8.032-6.47zM51.51 79.273v17.931l17.202-17.93zm31.511 20.76l.025-1.93h3.068V10.33h-3.093l.025-1.932h5.001v91.634zm-8.313-89.702l.025-1.932h5.002v91.634H58.179l.106-1.93h19.516V10.33z"/></g></g></svg>