<svg xmlns="http://www.w3.org/2000/svg" width="109" height="97" viewBox="0 0 109 97"><g><g><path fill="#fff" d="M108.987 81.987v15.015H76.281V81.969c.128.012.258.018.389.018 2.358 0 4.27-1.896 4.27-4.234a4.26 4.26 0 0 0-.01-.29H62.51a4.26 4.26 0 0 0-.01.29c0 2.338 1.912 4.234 4.27 4.234.132 0 .26-.006.389-.018v15.033H5.24v-1.925h26.384l-7.709-7.645.055-.055V76.246l-.031-.018.031-.054V66.62l-.031-.018.031-.054v-.154h-5.629v-.13L6.743 54.764l.014-.014h-.06V30.302h8.055V16.635H0V4.219h6.696V-.016h1.941v6.16H1.941v8.566h64.538V6.144h-6.696v-6.16h1.94v4.235h6.697v12.416H53.67v13.667h8.055V54.75h-.06l.013.014-11.696 11.6v.032h-5.435v9.784l.032.018-.032.054v9.553l.032.018-.032.054v1.597h-.088l-7.667 7.604h28.427V83.718c-2.68-.684-4.659-3.095-4.659-5.965 0-.781.148-1.527.415-2.214h21.492a6.1 6.1 0 0 1 .415 2.214c0 2.87-1.98 5.281-4.658 5.965v11.359h28.824V83.912h-1.844c-3.892 0-7.271-2.164-8.988-5.343l-.034.016-25.684-53.166 1.75-.832 25.367 52.51.029-.017a8.251 8.251 0 0 0 7.56 4.907zm-83.075-4.63v9.333l8.23 8.162-.226.225h.054l8.428-8.28zm23.231-12.886l9.803-9.722H9.475l9.802 9.722zm10.64-11.647V32.227H8.637v20.597zm-8.055-36.19H16.693v13.668h35.035zm-9.123 58.434v-8.673H27.458zm0 9.625V77.29l-16.693-9.557v7.402zM71.18 51.922l6.663 13.608-.048.022.428.843H64.15l.416-.82-.027-.012 6.639-13.575zm.015 4.582l-3.953 7.967h7.91z"/></g></g></svg>