<svg xmlns="http://www.w3.org/2000/svg" width="79" height="100" viewBox="0 0 79 100"><g><g><path fill="#fff" d="M5.682 46.313h2.48l-7.89-29.42.048-.013L1.626 5.696l.053.007.207-2.937 8.536 11.41.026-.007.018.065 8.604 32.079h7.297V.833H44.83v45.48h.746l12.21-21.127c-2.793-2.14-4.698-5.955-3.306-10.515.535-1.752 1.946-3.467 3.205-4.524.81-.68 1.88-1.278 2.16-2.482.143-.619.038-1.394-.094-1.936-.359-1.483-.997-2.707-1.706-3.851L57.347.834c1.523.136 2.943.538 4.238.94 4.855 1.503 8.285 4.236 10.17 8.698.483 1.144.852 2.384 1.127 3.735 1.278 6.293-2.177 10.803-6.421 12.4-.755.284-1.604.438-2.468.48l-7.105 19.226h4.47v5.14c9.37.478 16.82 8.218 16.82 17.695 0 9.478-7.45 17.218-16.82 17.696v3.016c0 5.6-4.544 10.139-10.149 10.139H15.831c-5.605 0-10.15-4.539-10.15-10.139zm53.743 38.623h.677v-.005c.112.003.225.005.338.005 8.728 0 15.804-7.069 15.804-15.788 0-8.718-7.076-15.786-15.804-15.786-.113 0-.226.001-.338.004v-.005h-.677v-5.117H7.615V89.86c0 4.533 3.679 8.208 8.216 8.208H51.21c4.538 0 8.216-3.675 8.216-8.208zM47.807 46.313h7.02l7.144-19.331a8.813 8.813 0 0 1-1.977-.526 9.078 9.078 0 0 1-.565-.252zM28.301 2.765v43.548h14.595V39.07h-2.803V37.14h2.803v-7.146H33.52v-1.93h9.376v-7.146h-2.803v-1.931h2.803V11.84H33.52v-1.93h9.376V2.764zm33.058 74.543c4.537 0 8.215-3.675 8.215-8.208 0-4.532-3.678-8.207-8.216-8.207zm0 1.931h-1.934V58.962h1.934c5.605 0 10.149 4.539 10.149 10.138 0 5.6-4.544 10.14-10.15 10.14zM61.12 3.653c.458 1.58 1.135 3.27.395 5.15-.453 1.149-1.354 1.781-2.23 2.504-1.12.927-2.231 2.155-2.832 3.585-.555 1.32-.612 3.604-.14 5.034.53 1.602 1.44 2.907 2.718 3.828l1.269.732c.52.235 1.084.421 1.691.555.726.16 1.791.223 2.59.07 3.89-.752 7.393-4.622 6.513-9.848-.148-.879-.315-1.71-.558-2.494-1.192-3.846-3.529-6.64-7.024-8.189-.734-.325-1.543-.758-2.392-.927zM9.164 16.843a10.123 10.123 0 0 1-6.45 1.695l7.45 27.775h6.905zM3.316 7.912l-1.01 8.638a8.18 8.18 0 0 0 3.326-.193 8.171 8.171 0 0 0 2.915-1.447z"/></g></g></svg>