<svg xmlns="http://www.w3.org/2000/svg" width="101" height="100" viewBox="0 0 101 100"><g><g><path fill="#fff" d="M33.088 2.765a6.183 6.183 0 0 1 6.186 6.18v10.042H53.58V.834h1.933v5.31h11.213v12.939H55.513v24.912h11.213v12.939H55.513v24.912h11.213v12.938H55.513V100H53.58V81.942H39.274v7.918c0 3.413-2.77 6.18-6.186 6.18H6.796A6.183 6.183 0 0 1 .61 89.86V8.945c0-3.413 2.77-6.18 6.186-6.18zm0 91.344a4.251 4.251 0 0 0 4.253-4.249V8.945a4.251 4.251 0 0 0-4.253-4.25H6.796a4.251 4.251 0 0 0-4.253 4.25V89.86a4.251 4.251 0 0 0 4.253 4.249zm6.186-70.97H53.58v-2.221H39.274zm0 52.72H53.58V25.07H39.274zm0 4.153H53.58V77.79H39.274zm38.858-4.153H57.736V62.921h20.396zm-1.933-11.007h-16.53v9.076H76.2zm24.745 11.007H80.548V62.921h20.396zM99.01 64.852H82.48v9.076h16.53zM78.13 38.008H57.737V25.07h20.396zM76.2 27.001h-16.53v9.076H76.2zm24.745 11.007H80.548V25.07h20.396zM99.01 27.001H82.48v9.076h16.53zM69.142 94.784V81.846h20.396v12.938zm18.463-11.007h-16.53v9.077h16.53zM69.142 56.934V43.995h20.396v12.939zm18.463-11.008h-16.53v9.076h16.53zM69.142 19.083V6.144h20.396v12.939zM87.605 8.075h-16.53v9.077h16.53zm-22.812 84.78v-9.078h-9.28v9.077zm0-37.853v-9.076h-9.28v9.076zm0-37.85V8.075h-9.28v9.077z"/></g></g></svg>