<svg xmlns="http://www.w3.org/2000/svg" width="106" height="100" viewBox="0 0 106 100"><g><g><path fill="#fff" d="M6.469 37.25h.011l-.004-.014 28.419-7.607V.834l.536.134.012-.045 64.6 17.29-.012.048v79.801h5.438V100H0v-1.938h6.469zM36.828 3.293v94.77H61v-19.97h12.937v19.97h24.157V19.69zM8.406 38.719v59.343h26.489V31.63zM62.937 80.03v18.031H72V80.031zm-45.468 0v9.062h9.125v-9.062zM15.562 91V78.093h12.97V91zm1.907-28v9.093h9.125V63zM15.562 74.03V61.093h12.97v12.938zm1.907-28v9.062h9.125v-9.062zm-1.907 11V44.093h12.97v12.938zm30.375 23v9.062H55v-9.062zM44 91V78.093h12.937V91zm1.937-28v9.093H55V63zM44 74.03V61.093h12.937v12.938zm1.937-28v9.062H55v-9.062zm-1.937 11V44.093h12.937v12.938zM62.937 63v9.093H72V63zM61 74.03V61.093h12.937v12.938zm1.937-28v9.062H72v-9.062zm-1.937 11V44.093h12.937v12.938zm18.937 23v9.062h9.094v-9.062zM78 91V78.093h12.969V91zm1.937-28v9.093h9.094V63zM78 74.03V61.093h12.969v12.938zm1.937-28v9.062h9.094v-9.062zm-1.937 11V44.093h12.969v12.938zm-32.063-28v9.062H55v-9.062zm-1.937 11V27.093h12.937v12.938zm18.937-11v9.062H72v-9.062zm-1.937 11V27.093h12.937v12.938zm18.937-11v9.062h9.094v-9.062zm-1.937 11V27.093h12.969v12.938z"/></g></g></svg>