<svg xmlns="http://www.w3.org/2000/svg" width="109" height="100" viewBox="0 0 109 100"><g><g><path fill="#fff" d="M91.645 44.782v10.816l-.024 1.509c-.078.465-.101.924-.21 1.357-.353 1.406-.83 2.59-1.53 3.633-.286.425-.598.868-.993 1.184-1.13.904-2.255 1.43-3.96 1.787-.717.15-1.596.116-2.454.116h-8.493c-.92 0-1.94.073-2.745-.081-2.478-.478-4.425-1.34-5.725-2.971-1.187-1.49-1.767-2.95-2.22-5.187-.143-.713-.081-1.624-.081-2.45v-4.258V37.54v-6.116c-.285-1.554-.658-2.937-1.367-4.062-1.104-1.752-3.046-2.381-5.514-2.797h-3.925v8.843c.644.494 1.167 1.676 1.378 2.623.154.693.082 1.625.082 2.437v20.669c0 .683.034 1.395-.105 1.95-.237.947-.625 1.625-1.145 2.274-.67.835-1.585 1.36-2.78 1.682-.368.1-.937.22-1.426.14-.398-.065-.773-.07-1.121-.174-1.466-.436-2.485-1.291-3.19-2.483-.294-.499-.462-1.083-.595-1.742-.124-.612-.059-1.393-.059-2.088v-3.783-12.94-3.818c0-.94-.02-1.873.199-2.588.212-.69.532-1.274.923-1.788l.444-.487v-8.854c-1.992-.148-3.719-1.016-5.024-1.88-.404-.268-1.099-.69-1.378-1.056v-.024l.105-.104H27.625c-1.23-.258-3.04-1.286-3.446-2.322-2.943.02-5.113.033-5.946-2.077-.27-.681-.199-1.754-.199-2.703v-2.17c0-1.768-.202-3.47.596-4.48.878-1.113 3.247-.85 5.234-.847.781-1.634 2.34-2.44 4.38-2.809h10.374c.227-.395.745-.9 1.098-1.184l.538-.475c.617-.464 1.292-.823 2.08-1.126C44.38.391 47.48.578 50.3.578h43.844c1.579 0 3.261-.077 4.567.21 3.772.828 6.611 2.64 8.388 5.442.865 1.364 1.348 2.892 1.706 4.793.21 1.113.07 2.361.07 3.586v13.253c0 2.593.189 5.545-.35 7.648-1.284 5.006-4.62 7.955-9.802 9.087-.939.205-2.048.185-3.19.185h-3.89zm-26.484 9.76h20.152v1.938H65.196v.012l.128.766c.155.623.317 1.218.55 1.764 1 2.347 2.781 3.653 5.642 4.166.469.084 1.024.058 1.565.058h9.429c.575 0 1.231.056 1.751-.035 1.165-.204 2.137-.496 2.933-1.056 1.507-1.06 2.136-2.994 2.488-5.21l.012-4.167v-9.934h5.35c1.063 0 2.228.073 3.131-.116 3.04-.635 5.346-1.944 6.87-4.074.91-1.272 1.413-2.749 1.775-4.595.15-.761.105-1.677.105-2.565v-4.061-11.072-2.739c.16-.972.02-2.323-.187-3.145-.335-1.337-.768-2.503-1.46-3.481-.267-.377-.577-.713-.865-1.068-.292-.361-.704-.677-1.074-.963-1.59-1.228-3.082-1.894-5.468-2.355-.957-.186-2.123-.093-3.224-.093H48.513c-1.897 0-3.8-.051-5.233.394-.906.282-1.547.712-2.197 1.23-.224.18-1.064 1.042-1.145 1.289v14.668l.76.616c.87.617 1.848 1.144 2.979 1.497.543.17 1.141.226 1.752.336.946.17 2.088.091 3.12.081h7.815l1.122.151c1.05.231 1.995.499 2.873.882 2.971 1.297 4.172 4.044 4.802 7.683v23.198zM37.999 19.437V5.905h-9.591c-.941.191-2.045.55-2.523 1.219-.212.295-.368.68-.444 1.102v6.441c0 1.505-.042 2.906.619 3.737.333.42 1.217.893 1.822 1.033H38zm51.695-11.5h6.694c1.88.31 3.336.681 4.276 1.914.621.817.965 1.82 1.191 3.04l.012 4.4v9.829l-.012 4.769c-.31 1.591-.819 2.79-1.659 3.83-.192.237-.46.436-.713.615-1.127.797-2.318 1.1-3.995 1.38h-5.794V7.936zM23.49 17.115V8.702h-2.418c-.315 0-.817-.005-.958.174-.224.283-.129 1.325-.129 1.834v4.073c0 .685-.065 1.428.234 1.81.482.618 2.133.526 3.27.523zm68.155-7.253v25.925h3.68c1.005-.168 1.89-.338 2.616-.766.286-.167.593-.33.795-.58.59-.729.976-1.646 1.18-2.762v-3.76-10.897-3.946c-.16-.866-.432-1.59-.888-2.158-1.109-1.38-4.833-1.057-7.383-1.056zM.709 11.893h17.232v1.938H.709v-1.938zm69.125 1.846h14.603v1.926H69.834v-1.926zm0 4.444h14.603v1.938H69.834v-1.938zm0 4.445h14.603v1.938H69.834v-1.938zm-19.381 2.03l-3.505.013v7.426l.526-.15.759-.116c.844-.136 1.614.14 2.22.302v-7.474zm19.38 2.426h14.604v1.927H69.834v-1.927zm0 4.445h14.604v1.938H69.834V31.53zm-21.366 2.414l-.41.035c-.376.07-.781.116-1.109.255-.426.181-.825.667-1.063 1.045a3.563 3.563 0 0 0-.444 1.149c-.108.495-.047 1.161-.047 1.729v20.75c0 .625-.048 1.331.082 1.844.23.912.758 1.573 1.472 2.008.417.254 1.188.61 1.951.488 1.521-.245 2.487-1 2.897-2.333.153-.497.117-1.195.117-1.845v-3.121-13.428-4.259c0-.944.033-1.883-.245-2.53-.53-1.228-1.427-1.792-3.201-1.787zm21.367 2.031h14.603v1.938H69.834v-1.938zM1.387 37.912h18.598v43.612h44.007v18.475H1.387V37.912zm1.95 1.938v58.21h58.704V83.463h-7.196v9.377h-1.95v-9.377h-7.209v2.808l-1.95-.012v-2.796h-7.197v9.377h-1.951v-9.377H27.38v2.808h-1.94v-2.808h-7.406v-7.253H15.22V74.27h2.815v-7.149h-9.44v-1.938h9.44v-7.16H15.22v-1.926h2.815v-7.162h-9.44V47h9.44v-7.15H3.338z"/></g></g></svg>