<svg xmlns="http://www.w3.org/2000/svg" width="109" height="100" viewBox="0 0 109 100"><g><g><path fill="#fff" d="M0 .56h108.212v37.837H48.57v9.383l.734-.5c.431-.253.943-.417 1.469-.57.575-.169 1.496-.305 2.231-.181.524.087.958.086 1.398.222 1.956.603 3.321 2.096 3.8 4.143h.014c.573-.404 1.146-.783 1.906-1.016.405-.124.841-.176 1.3-.25a5.37 5.37 0 0 1 1.51.014c2.383.387 3.563 1.315 4.577 3.03.225.38.394.85.522 1.307l.127.668.029-.028.635-.445a6.343 6.343 0 0 1 1.78-.737c1.434-.361 3.062.023 4.01.57 1.384.797 2.325 1.81 2.84 3.461.32 1.031.24 2.506.24 3.85v6.604l-.014 10.814-.156 1.821c-.27 1.486-.413 2.919-.819 4.254-.35 1.15-.676 2.283-1.13 3.336-2.486 5.774-6.397 9.736-12.824 11.635-.741.219-1.71.208-2.711.208H52.75c-1.235-.236-2.402-.627-3.46-1.057-1.436-.581-2.722-1.23-3.898-2.057-2.015-1.415-3.495-3.462-4.788-5.588-.645-1.061-1.21-2.218-1.723-3.392l-.607-1.557-.438-.541c-.342-.446-.7-.872-1.045-1.307-1.213-1.533-2.553-2.948-3.94-4.309-1.968-1.93-4.328-3.56-6.737-5.046-1.813-1.118-3.429-1.387-4.04-3.767-.403-1.57.47-2.726 1.144-3.559.688-.848 1.675-1.413 2.868-1.765 1.018-.301 2.728-.325 3.911-.125.676.114 1.302.112 1.921.264 2.002.49 3.368 1.018 4.873 1.96V38.397H0V.559zm1.963 1.932v33.973h34.828c-.051-2.646 1.972-4.538 4.025-5.157 1.052-.318 2.74-.323 3.785 0 1.958.603 3.98 2.654 3.969 5.157h57.679V2.492H1.963zm64.26 62.941v-7.381-3.072c-.213-1.153-.677-2.02-1.454-2.613-.579-.443-1.73-1.027-2.923-.834-.415.067-.801.084-1.159.195-1.076.331-1.828 1.063-2.231 2.057-.348.857-.184 2.576-.184 3.739v7.91H56.31V55.285 51.38c-.267-1.26-1.1-2.263-2.217-2.697-.352-.137-.703-.152-1.144-.223h-.96c-1.717.288-2.705.941-3.263 2.35-.308.778-.155 2.577-.155 3.642v7.798l-.014 3.28h-1.95V41.192v-5.033c-.386-1.97-2.171-3.661-4.844-3.085-1.602.345-2.49 1.232-2.937 2.71-.188.62-.071 1.748-.071 2.502v35.266a.806.806 0 0 1-.028-.013l-.96-1.433c-.421-.62-.788-1.359-1.37-1.82-1.194-.947-2.507-1.564-4.195-2.058l-1.695-.32c-.491-.093-.985-.043-1.511-.125-1.958-.303-3.591.387-4.378 1.39-.217.276-.768.955-.678 1.474.3 1.743 1.687 1.914 2.937 2.683a63.228 63.228 0 0 1 4.633 3.156c.885.658 1.656 1.446 2.514 2.126.464.369 1.008.931 1.384 1.39l.89.918c.58.71 1.221 1.362 1.793 2.084.485.613.996 1.204 1.469 1.835l.48.612.438 1.195c.406.973.832 1.966 1.356 2.85 1.273 2.15 2.58 4.238 4.547 5.699 1.07.794 2.276 1.382 3.602 1.932.9.374 1.918.736 2.966.932h7.231c.53 0 1.209.073 1.667-.042 6.738-1.69 10.638-6.357 12.668-12.691.477-1.487.718-3.066 1.031-4.754.208-1.12.184-2.353.184-3.642v-4.532-9.118-3.114c0-.69.045-1.355-.1-1.918-.413-1.623-1.473-2.625-3.177-2.976-.847-.173-1.691.09-2.231.363-.36.18-.763.382-1.003.68-1.117 1.39-1.031 3.973-1.031 6.465l-.014 2.654h-1.95zM18.686 19.402c.907.243 1.614.666 2.123 1.267.508.602.762 1.322.762 2.16 0 .838-.271 1.571-.814 2.2-.543.628-1.264 1.108-2.164 1.44-.9.33-1.879.496-2.937.496a9.944 9.944 0 0 1-2.865-.426 8.587 8.587 0 0 1-2.596-1.277l.721-1.5c.632.486 1.34.85 2.123 1.094a7.945 7.945 0 0 0 2.37.366c1.154 0 2.123-.24 2.906-.72.783-.48 1.175-1.14 1.175-1.978 0-.716-.296-1.266-.887-1.652-.59-.386-1.422-.577-2.493-.577h-3.216v-1.643h3.071c.92 0 1.639-.186 2.154-.558.515-.372.773-.889.773-1.551 0-.743-.337-1.332-1.01-1.764-.673-.432-1.525-.649-2.556-.649a7.78 7.78 0 0 0-2.05.284 7.543 7.543 0 0 0-1.968.851l-.66-1.662a9.45 9.45 0 0 1 2.308-.913 9.988 9.988 0 0 1 2.432-.303c1.017 0 1.951.155 2.803.466.852.311 1.529.764 2.03 1.358.502.595.752 1.291.752 2.089 0 .716-.202 1.345-.607 1.885-.406.541-.966.946-1.68 1.217zm15.253 3.853h-7.667l-1.587 3.548h-2.122l6.533-14.194h2.04l6.554 14.194h-2.164zm-.721-1.623l-3.113-6.954-3.112 6.954zm17.747-9.023v14.194h-2.02v-4.136h-3.978c-.247 0-.433-.007-.556-.021l-2.886 4.157H39.34l3.194-4.502c-1.03-.337-1.82-.902-2.37-1.693-.55-.79-.824-1.754-.824-2.89 0-1.608.525-2.861 1.576-3.76 1.051-.9 2.47-1.349 4.256-1.349zM41.42 17.7c0 1.054.312 1.862.938 2.423.625.56 1.549.841 2.772.841h3.813v-6.59h-3.69c-1.236 0-2.184.284-2.843.852-.66.567-.99 1.393-.99 2.473zm22.334 1.744c.976.23 1.714.638 2.216 1.226.501.589.752 1.342.752 2.261 0 1.23-.457 2.183-1.37 2.86-.914.675-2.244 1.013-3.988 1.013H54.77V12.609h6.203c1.58 0 2.813.314 3.7.943.886.628 1.33 1.531 1.33 2.707 0 .77-.197 1.426-.588 1.967-.392.54-.945.946-1.66 1.217zm-6.945-.589h4.019c1.003 0 1.769-.195 2.298-.587.529-.393.793-.967.793-1.724s-.268-1.335-.803-1.734c-.536-.398-1.299-.598-2.288-.598H56.81zm4.513 6.347c2.213 0 3.319-.81 3.319-2.433 0-.811-.279-1.41-.835-1.794-.556-.386-1.384-.579-2.484-.579H56.81v4.806zm13.33-4.643h-3.008v6.245h-2.02V12.609h2.02v6.164h3.05l4.534-6.164h2.205l-5.152 6.874 5.4 7.32h-2.35zm19.63 2.697h-7.668l-1.586 3.548h-2.123l6.533-14.194h2.04l6.554 14.194H95.87zm-.722-1.623l-3.112-6.954-3.112 6.954z"/></g></g></svg>