<svg xmlns="http://www.w3.org/2000/svg" width="104" height="100" viewBox="0 0 104 100"><g><g><path fill="#fff" d="M23.972 99.615c-10.925 0-19.782-8.774-19.782-19.599 0-10.823 8.857-19.598 19.782-19.598.934 0 1.853.065 2.752.19l12.327-12.214-21.735-21.535-8.164-2.167.032-.116L.707 10.03l.029-.017-.017-.017 5.919-5.864.042.041.113-.195 14.675 8.43.116-.03 2.205 8.049L45.535 41.97l10.924-10.823c-1.113-2.003-1.7-4.227-2.052-6.24-1.467-8.393 2.29-15.197 12.044-20.313C73.374.962 80.159.12 87.079.75l-.021.119 1.39 1.377-12.946 12.826c1.356 6.945 6.844 12.41 13.838 13.797l12.99-12.87 1.26 1.249.12-.02.018.156.01.011-.008.01.165 1.417c.166 1.761.123 3.549-.052 5.31-.615 6.2-2.553 12.099-7.168 18.338-1.625 2.198-4.014 4.445-6.156 5.579-5.126 2.712-12.107 2.37-17.324-.391l-6.699 6.637a7.955 7.955 0 0 1 4.125 2.057l25.085 24.855v-.001a7.848 7.848 0 0 1-.141 11.031l-5.496 5.446-.029.028-.394.39-.016-.015c-3.084 2.635-7.717 2.547-10.696-.262l1.41-1.398a6.02 6.02 0 0 0 8.315-.14l5.496-5.445a5.886 5.886 0 0 0 .141-8.238L69.211 57.749a5.999 5.999 0 0 0-4.613-1.573L53.67 67a5.874 5.874 0 0 0 1.588 4.57l-1.41 1.398a7.827 7.827 0 0 1-2.076-4.087l-8.245 8.17c.148.966.225 1.956.225 2.964 0 10.825-8.857 19.6-19.781 19.6zM90.02 30.988c-8.653-1.22-15.468-8.007-16.65-16.597l1.83-1.812L85.32 2.554l-1.632-.09c-2.49-.006-4.95.213-7.444.708-4.495.892-8.854 2.775-13.362 6.05-1.814 1.318-3.749 3.218-4.86 5-2.734 4.385-2.136 8.847-.901 13.254.266.95.662 2.132 1.27 3.024l-.072.041.746.818-29.995 29.718.111.03-1.655 1.639a18.038 18.038 0 0 0-3.553-.352c-9.824 0-17.788 7.89-17.788 17.623S14.148 97.64 23.972 97.64c9.823 0 17.787-7.89 17.787-17.623 0-1.285-.14-2.538-.404-3.745L43 74.642l.03.109 29.915-29.639.708.635.046-.08c.961.625 2.183 1.02 3.196 1.301 4.274 1.187 8.432 1.594 12.7-.674 5.477-2.912 9.63-10.917 10.839-15.173.896-3.157 1.306-6.095 1.553-9.215l-.073-2.703-10.2 10.107zm-70.91-5.145l21.35 21.154 3.665-3.63-21.35-21.154zM3.19 10.341l7.392 12.686 6.745 1.79 4.412-4.37-1.825-6.663L7.127 6.439zm37.976 47.268l5.355 5.306-1.41 1.396-5.355-5.306zm22.62 12.497l19.73 19.548-1.41 1.397-19.73-19.55zm-8.527 1.466l25.085 24.854-1.409 1.396L53.85 72.97zm13.6-6.492l19.73 19.547-1.41 1.396-19.73-19.548zm-34.106-1.118l5.356 5.306-1.41 1.396-5.355-5.305zm12.825-12.706l5.355 5.306-1.409 1.396-5.355-5.306zm-26.143 37.77l-6.623-6.563 2.447-9.1 9.18-2.42 6.747 6.693-2.424 8.965zm9.53-10.805l-5.137-5.09-6.947 1.845-1.861 6.883 5.026 4.979 7.098-1.885zM53.99 44.903l5.356 5.306-1.41 1.396-5.355-5.306zm6.413-6.354l5.355 5.307-1.41 1.396-5.355-5.306zm5.284-15.15L80.98 38.55l-1.41 1.397-15.29-15.15z"/></g></g></svg>