<svg xmlns="http://www.w3.org/2000/svg" width="114" height="100" viewBox="0 0 114 100"><g><g><path fill="#fff" d="M113.911 84.61v15.392H79.966V84.59c.133.012.267.018.403.018 2.447 0 4.432-1.944 4.432-4.34 0-.1-.004-.199-.01-.297H65.673c-.007.098-.01.197-.01.297 0 2.396 1.984 4.34 4.431 4.34.136 0 .27-.006.404-.018V100H6.233V98.03h27.383l-8-7.838.057-.056V78.724l-.033-.019.033-.055v-9.793l-.033-.018.033-.056v-.157h-5.842v-.133L7.792 56.7l.014-.013h-.062V31.625h8.36V17.614H.794V4.886h6.95V.544h2.014v6.315h-6.95v8.781h66.984V6.86h-6.95V.543h2.014v4.342h6.95v12.728h-15.31v14.01h8.36v25.063h-.062l.014.013-12.14 11.892v.034h-5.64v10.03l.032.018-.032.055v9.793l.032.018-.032.056v1.637h-.092l-7.957 7.796h29.504V86.384c-2.78-.701-4.835-3.173-4.835-6.115 0-.8.153-1.566.43-2.27h22.307c.277.704.43 1.47.43 2.27 0 2.942-2.054 5.414-4.835 6.115v11.645h29.917V86.583h-1.914c-4.039 0-7.546-2.218-9.328-5.478l-.035.016L73.962 26.62l1.817-.853 26.328 53.83.03-.016c1.321 2.96 4.336 5.03 7.846 5.03zm-86.223-4.747v9.568l8.542 8.367-.236.23h.057l8.747-8.488zm24.111-13.21l10.174-9.966H10.627l10.174 9.965zm11.043-11.94V33.598H9.758v21.115zm-8.36-37.1H18.118v14.012h36.364zm-9.469 59.903v-8.89h-15.72zm0 9.867v-7.588l-17.325-9.798v7.588zm29.658-33.595l6.915 13.95-.05.023.445.865H67.375l.431-.84-.027-.014 6.89-13.917zm.016 4.697l-4.103 8.167h8.21z"/></g></g></svg>