<svg xmlns="http://www.w3.org/2000/svg" width="89" height="100" viewBox="0 0 89 100"><g><g><path fill="#fff" d="M58.254 54.931h-44.27v-1.926h44.27zm0 9.632h-44.27v-1.926h44.27zm0 9.632h-44.27V72.27h44.27zm0-28.897h-44.27v-1.926h44.27zm0-9.632h-44.27V33.74h44.27zM26.55 22.084c-.052 3.36-2.802 6.069-6.186 6.069-3.385 0-6.134-2.709-6.186-6.07v-8.475h1.933v8.38a4.246 4.246 0 0 0 4.253 4.238 4.245 4.245 0 0 0 4.253-4.238V10.333H2.385v87.558h47.46V77.18l.587.035.001-.034h19.324V10.333H26.55zM6.497 8.406c.825-4.76 4.988-8.38 10-8.38s9.176 3.62 10 8.38H71.69v70.702h-.09l.026.03-19.848 20.641v.039h-.037l-.06.063-.064-.063H.452V8.406zm10-6.453a8.212 8.212 0 0 0-8.03 6.453h16.061a8.212 8.212 0 0 0-8.03-6.453zm35.281 77.155v17.888l17.203-17.888zm31.511 20.71l.025-1.927h3.069V10.333h-3.094l.025-1.927h5.002v91.412zm-8.312-89.485L75 8.406h5.002v91.412H58.448l.106-1.927H78.07V10.333z"/></g></g></svg>