<svg xmlns="http://www.w3.org/2000/svg" width="79" height="99" viewBox="0 0 79 99"><g><g><path fill="#fff" d="M6.245 45.178h2.487L.82 15.964l.048-.012 1.31-11.106.053.006.208-2.916 8.559 11.33.026-.007.017.065 8.627 31.854h7.316V.017h18.51l.001 45.161h.748L58.485 24.2c-2.801-2.126-4.711-5.914-3.315-10.442.537-1.74 1.95-3.442 3.213-4.492.813-.676 1.885-1.27 2.165-2.465.144-.614.039-1.384-.093-1.923-.36-1.473-1-2.688-1.711-3.824L58.045.017c1.527.135 2.951.535 4.25.933C67.161 2.444 70.6 5.157 72.491 9.59c.483 1.135.853 2.367 1.129 3.709 1.282 6.248-2.183 10.727-6.438 12.311-.756.283-1.608.437-2.475.478l-7.123 19.091h4.482v5.106c9.394.474 16.863 8.159 16.863 17.571 0 9.411-7.469 17.098-16.863 17.572v2.996c0 5.56-4.556 10.067-10.176 10.067h-35.47c-5.62 0-10.176-4.507-10.176-10.067zm53.884 38.354h.678v-.004c.113.002.226.004.34.004 8.75 0 15.845-7.018 15.845-15.677 0-8.658-7.094-15.677-15.845-15.677-.114 0-.227.002-.34.004v-.004h-.678v-5.082H8.183v41.327c0 4.5 3.688 8.15 8.238 8.15h35.47c4.55 0 8.238-3.65 8.238-8.15zM48.481 45.178h7.038l7.162-19.195a8.897 8.897 0 0 1-1.982-.522c-.19-.076-.379-.16-.566-.25zM28.923 1.935v43.243h14.634v-7.19h-2.81v-1.919h2.81v-7.095h-9.4v-1.918h9.4v-7.095h-2.81v-1.918h2.81v-7.095h-9.4V9.03h9.4V1.935zm33.144 74.022c4.55 0 8.238-3.649 8.238-8.15s-3.688-8.15-8.238-8.15zm0 1.918H60.13V57.74h1.938c5.62 0 10.176 4.507 10.176 10.067 0 5.56-4.555 10.068-10.176 10.068zM61.83 2.817c.459 1.568 1.138 3.246.395 5.113-.454 1.142-1.357 1.77-2.235 2.488-1.124.92-2.237 2.14-2.84 3.559-.556 1.311-.614 3.579-.14 4.999.531 1.59 1.444 2.886 2.724 3.801l1.28.73c.52.233 1.083.417 1.688.548.728.159 1.796.223 2.597.07 3.9-.747 7.412-4.59 6.53-9.78-.149-.872-.315-1.697-.559-2.476-1.195-3.82-3.538-6.593-7.042-8.132-.736-.322-1.547-.752-2.398-.92zM9.736 15.916a10.222 10.222 0 0 1-6.467 1.68l7.47 27.582h6.923zm-5.864-8.87l-1.011 8.578c1.08.158 2.21.107 3.333-.191a8.243 8.243 0 0 0 2.923-1.438z"/></g></g></svg>