<?xml version="1.0" encoding="utf-8"?><svg xmlns="http://www.w3.org/2000/svg" xmlns:xlink="http://www.w3.org/1999/xlink"><symbol viewBox="0 0 22 24" id="basket" xmlns="http://www.w3.org/2000/svg"><g clip-path="url(#aa)"><path d="M10.363 18.443a2.046 2.046 0 00-2.045 2.042 2.046 2.046 0 004.09 0 2.046 2.046 0 00-2.045-2.042zm6.134 0a2.046 2.046 0 00-2.045 2.042 2.046 2.046 0 004.089 0 2.046 2.046 0 00-2.044-2.042zm3.978-8.199L7.413 6.891a.614.614 0 00-.75.73L8.67 16.4h-.786L5.482 5.895a.613.613 0 00-.474-.464l-4.27-.882A.614.614 0 00.489 5.75l3.885.802L6.797 17.15a.613.613 0 00.598.477h12.07a.615.615 0 00.607-.53l.858-6.175a.613.613 0 00-.455-.678zm-8.14 3.91a.613.613 0 01-1.227 0v-2.696a.613.613 0 011.227 0v2.696zm2.625 0a.613.613 0 01-1.227 0v-1.88a.613.613 0 011.227 0v1.88zm2.625 0a.613.613 0 01-1.227 0v-1.226a.613.613 0 011.227 0v1.226z"/></g><path fill-rule="evenodd" clip-rule="evenodd" d="M16.268 4.568a2.996 2.996 0 00-1.693-.523c-.627 0-1.21.193-1.693.523-.28-.843-.492-1.752-.492-2.383C12.39.98 13.37 0 14.575 0s2.185.98 2.185 2.185c0 .631-.212 1.54-.492 2.383zm-4.722 2.274l.024.006v-.011l-.024.005zm4.972 1.217c-1.333-.33-2.766-.681-4.129-1.013a2.185 2.185 0 114.129 1.013zm4.436 1.103c-.866-.217-2.155-.538-3.618-.9a2.995 2.995 0 00.243-1.425c.87.18 1.762.45 2.308.765.596.344.969.928 1.067 1.56zM9.869 6.439c-.36-.086-.706-.167-1.03-.243a2.19 2.19 0 01-.376-2.667 2.188 2.188 0 013.147-.7c.098.738.338 1.599.61 2.353a3.01 3.01 0 00-.449.774c-.628.113-1.305.278-1.902.483zm10.124.075a3.43 3.43 0 01-.217.114c-.696-.295-1.587-.526-2.397-.672a3.01 3.01 0 00-.449-.774c.262-.727.494-1.553.599-2.273.095-.067.189-.128.278-.18a2.188 2.188 0 012.986.8 2.188 2.188 0 01-.8 2.985z"/><defs><clipPath id="aa"><path transform="translate(0 3.064)" d="M0 0h20.936v20.936H0z"/></clipPath></defs></symbol><symbol viewBox="0 0 13 24" id="chevron-left" xmlns="http://www.w3.org/2000/svg"><path d="M11.668-.008L-.002 12l11.67 12.007 1.334-1.716L2.999 12 13.002 1.708z"/></symbol><symbol viewBox="0 0 13 24" id="chevron-right" xmlns="http://www.w3.org/2000/svg"><path d="M1.332-.008L13.002 12 1.332 24.007-.002 22.29 10 12-.002 1.708z"/></symbol><symbol viewBox="0 0 15 21" id="loc" xmlns="http://www.w3.org/2000/svg"><path d="M15 7.516C15 13.106 8.291 21 7.5 21 6.693 21 0 13.107 0 7.517 0 3.364 3.358-.002 7.5-.002c4.142 0 7.5 3.366 7.5 7.518zM5.694 3.411l-.744.39-.65.538-.487.53A4.546 4.546 0 002.95 7.54a4.556 4.556 0 004.55 4.563 4.556 4.556 0 004.55-4.562 4.556 4.556 0 00-5.597-4.439z"/></symbol><symbol viewBox="0 0 24 24" id="soc-inst" xmlns="http://www.w3.org/2000/svg"><path d="M12 2.162c-3.204 0-3.584.012-4.85.07-1.169.053-1.804.249-2.227.413-.56.218-.96.478-1.38.898-.42.42-.68.82-.898 1.38-.164.422-.36 1.058-.413 2.228-.058 1.265-.07 1.645-.07 4.849s.012 3.584.07 4.849c.054 1.17.249 1.805.413 2.228.218.56.478.96.898 1.38.42.42.82.68 1.38.897.423.165 1.058.36 2.228.414 1.265.057 1.645.07 4.849.07s3.584-.013 4.849-.07c1.17-.054 1.805-.25 2.228-.414a3.71 3.71 0 001.38-.897c.42-.42.68-.82.898-1.38.164-.423.36-1.058.413-2.228.058-1.265.07-1.645.07-4.85 0-3.203-.012-3.583-.07-4.848-.054-1.17-.249-1.806-.413-2.228a3.718 3.718 0 00-.898-1.38c-.42-.42-.82-.68-1.38-.898-.423-.164-1.058-.36-2.228-.413-1.265-.058-1.645-.07-4.849-.07 0 0 3.204 0 0 0zM12 0c3.259 0 3.668.014 4.947.072 1.278.058 2.15.261 2.913.558.79.307 1.459.717 2.126 1.384A5.886 5.886 0 0123.37 4.14c.297.763.5 1.635.558 2.912C23.986 8.332 24 8.741 24 12c0 3.259-.014 3.667-.072 4.947-.059 1.278-.261 2.15-.558 2.913a5.883 5.883 0 01-1.384 2.126 5.885 5.885 0 01-2.126 1.384c-.763.296-1.635.5-2.913.557-1.28.059-1.688.073-4.947.073-3.26 0-3.668-.014-4.948-.073-1.277-.058-2.15-.26-2.912-.557a5.883 5.883 0 01-2.126-1.384A5.882 5.882 0 01.63 19.86c-.297-.763-.5-1.635-.558-2.913C.014 15.667 0 15.26 0 12s.014-3.668.072-4.948C.131 5.775.333 4.902.63 4.14a5.885 5.885 0 011.384-2.126A5.884 5.884 0 014.14.63C4.903.333 5.775.13 7.052.072 8.332.014 8.741 0 12 0zm6.162 12a6.162 6.162 0 11-12.324 0 6.162 6.162 0 0112.324 0zM16 12a4 4 0 10-8 0 4 4 0 008 0zm3.846-6.406a1.44 1.44 0 11-2.88 0 1.44 1.44 0 012.88 0z"/></symbol><symbol viewBox="0 0 21 21" id="soc-mail" xmlns="http://www.w3.org/2000/svg"><path d="M10.37.001a10.008 10.008 0 013.92.713c2.871 1.146 4.887 3.189 6.03 6.064.923 2.32.843 5.473-.1 7.7-1.238 2.923-3.474 5.07-6.634 6.064-.622.196-1.28.277-1.992.402l-.95.056-.302-.01c-.387-.024-.748-.01-1.087-.073-.39-.071-.748-.092-1.106-.183-.735-.187-1.4-.427-2.028-.704-2.797-1.235-4.769-3.6-5.711-6.704-.343-1.128-.561-2.973-.284-4.362C.26 8.3.36 7.656.583 7.08 1.86 3.79 3.852 1.822 7.144.55 7.785.302 8.501.21 9.254.074c.372-.024.744-.05 1.115-.073zm3.782 13.325V7.17c0-.175.042-.455-.018-.594-.116-.272-.954-.174-1.352-.174-.139 0-.351-.029-.457.018-.096.042-.122.123-.174.21a5.854 5.854 0 00-.986-.31c-.794-.171-1.732-.032-2.321.21-1.116.458-1.922 1.333-2.294 2.533-.1.32-.123.639-.183 1.015-.058.367-.06.89 0 1.262.052.321.08.636.165.924.352 1.191 1.056 2.096 2.23 2.46.243.076.477.093.767.137.384.06.867.019 1.197-.063.63-.157 1.046-.464 1.544-.723.033.225.096.607.265.704.164.094.772.037 1.024.037h2.156c.241 0 .744.056.932-.018.269-.107.566-.794.722-1.06.743-1.278 1.118-3.712.576-5.535-.681-2.286-1.934-3.775-4.048-4.618-.49-.195-1.028-.313-1.6-.43-.4-.08-.808-.039-1.251-.11-.492-.078-1.22-.001-1.636.083-.323.065-.62.085-.914.173-1.002.3-1.85.69-2.604 1.226-.396.281-.822.594-1.124.97-.653.811-1.263 1.64-1.617 2.761-.138.437-.203.9-.293 1.4l-.036.814c0 .933.126 1.713.347 2.414.754 2.386 2.41 3.931 4.797 4.683 1.162.365 3.057.553 4.533.293.375-.067.736-.085 1.078-.165.11-.026.227-.022.31-.073a.341.341 0 00.128-.174c.038-.128.032-1.244-.009-1.345a.337.337 0 00-.192-.173c-.188-.06-.421.061-.575.1-.404.103-.836.125-1.27.202l-.722.046c-.257.04-.656.053-.923.008l-.594-.036c-.556-.1-1.069-.184-1.535-.366-1.693-.661-2.76-1.819-3.308-3.631-.157-.518-.325-1.55-.21-2.24.06-.363.077-.712.173-1.034a6.4 6.4 0 01.695-1.591c.737-1.174 1.884-2 3.353-2.442.356-.107.741-.133 1.143-.202.583-.1 1.546-.006 2.028.1 1.777.396 3.078 1.203 3.737 2.699.54 1.225.773 3.006.375 4.582-.085.337-.224 1-.42 1.198h-1.609zM10.333 8.05c.796-.013 1.224.174 1.79.339l.01 3.923c-.481.255-.89.553-1.517.686a2.297 2.297 0 01-.786 0c-.863-.167-1.155-.692-1.334-1.537l-.045-.493c-.076-.47-.004-1.059.11-1.436.185-.621.542-1.111 1.114-1.344.196-.08.46-.06.658-.138z"/></symbol><symbol viewBox="0 0 19 21" id="soc-vb" xmlns="http://www.w3.org/2000/svg"><path d="M18.586 4.963c.514 2.53.596 5.062-.019 7.59-.107.442-.27.866-.44 1.288-.64 1.589-1.901 2.43-3.475 2.902-1.24.37-2.514.534-3.799.634-.673.053-1.737.027-2.415.015-.575-.009-.42-.027-.79.355-.733.753-1.397 1.412-2.1 2.204-.235.266-.558.598-1.026 1.049 0-1.316-.005-2.575.004-3.834.001-.193-.053-.311-.232-.385-.194-.08-.376-.188-.57-.266C1.94 15.802.898 14.461.42 12.64.007 11.066-.046 9.464.035 7.852.09 6.758.23 5.679.518 4.619.922 3.132 1.837 2.06 3.166 1.316 4.297.683 5.527.346 6.8.175a19.1 19.1 0 017.45.46c.976.254 1.885.653 2.66 1.314.934.796 1.437 1.84 1.676 3.014zM9.428 3.781c.41.034.813.118 1.21.22 1.506.386 2.676 1.185 3.287 2.669.316.766.475 1.568.53 2.391.014.214.117.327.328.325.208-.002.289-.143.3-.328.009-.165.001-.332.001-.498-.036-1.117-.394-2.32-1.057-3.212-1.132-1.52-2.603-2.1-4.558-2.193-.23-.011-.37.083-.383.326-.014.246.156.286.342.3zm3.333 3.587c.087.312.157.626.198.948.027.21-.024.493.322.503.238.006.301-.1.323-.516.03-.586-.172-1.368-.515-1.92-.734-1.179-1.8-1.674-3.164-1.804-.214-.02-.36.069-.394.291-.038.236.107.343.31.372.417.06.82.172 1.217.311.886.31 1.45.917 1.703 1.815zm-1.69-1.136c-.175-.085-.476-.18-.671-.17-.287.018-.446.143-.44.351.007.252.222.255.394.303.068.019.137.028.204.046.547.147.861.506.967 1.055.02.102.028.209.058.308.044.144.135.244.302.24.166-.002.26-.093.296-.245.018-.076.019-.155.032-.27-.088-.777-.424-1.269-1.142-1.618zm3.723 6.174a15.417 15.417 0 00-1.882-1.384c-.773-.48-1.343-.351-1.877.385-.025.036-.05.071-.078.105-.246.301-.552.42-.934.31-.416-.122-.786-.34-1.148-.57a5.303 5.303 0 01-2.104-2.484c-.266-.64-.142-1.055.414-1.46.071-.052.144-.102.21-.158.42-.35.517-.695.284-1.183A7.856 7.856 0 005.933 3.59a.973.973 0 00-.742-.275c-1.039.057-1.986 1.053-1.989 2.131-.01.288.06.603.183.905 1.692 4.185 4.681 7.085 8.818 8.842.3.127.62.207.948.115.907-.256 1.555-.822 1.934-1.678.213-.48.11-.883-.291-1.225z"/></symbol><symbol viewBox="0 0 35 20" id="soc-vk" xmlns="http://www.w3.org/2000/svg"><path d="M17.123 19.917h2.092s.631-.07.954-.418c.297-.32.288-.92.288-.92s-.041-2.813 1.261-3.227c1.285-.408 2.934 2.718 4.682 3.92 1.321.91 2.326.71 2.326.71l4.674-.065s2.445-.151 1.285-2.077c-.095-.157-.675-1.425-3.475-4.029-2.931-2.725-2.538-2.284.992-6.998 2.15-2.872 3.01-4.624 2.74-5.375-.255-.715-1.837-.526-1.837-.526l-5.262.033s-.39-.054-.68.12c-.282.17-.463.566-.463.566s-.834 2.22-1.944 4.11c-2.343 3.987-3.28 4.198-3.663 3.95-.892-.577-.669-2.317-.669-3.554 0-3.864.585-5.475-1.139-5.892-.572-.138-.993-.23-2.456-.245-1.878-.018-3.467.006-4.367.448-.598.294-1.06.948-.779.986.348.046 1.136.213 1.553.782.54.735.52 2.386.52 2.386s.31 4.548-.723 5.113c-.71.388-1.682-.403-3.771-4.02-1.07-1.853-1.879-3.901-1.879-3.901s-.156-.383-.434-.588C6.612.958 6.141.88 6.141.88l-5 .033S.39.933.113 1.26c-.245.291-.02.893-.02.893s3.917 9.177 8.35 13.802c4.066 4.24 8.681 3.962 8.681 3.962z"/></symbol><symbol viewBox="0 0 20 21" id="soc-wa" xmlns="http://www.w3.org/2000/svg"><path d="M20 10.23c0 5.648-4.396 10.229-9.82 10.229a9.476 9.476 0 01-4.745-1.273L-.001 21l1.771-5.49a10.504 10.504 0 01-1.408-5.28C.362 4.58 4.758 0 10.18 0 15.604 0 20 4.58 20 10.23zm-9.82-8.517c-4.506 0-8.173 3.82-8.173 8.516a8.71 8.71 0 001.556 4.993l-1.02 3.163 3.14-1.048a7.896 7.896 0 004.497 1.408c4.508 0 8.175-3.82 8.175-8.516 0-4.695-3.667-8.516-8.175-8.516zm4.883 12.4c-.231.6-1.276 1.15-1.737 1.175-.46.025-.473.374-2.984-.77-2.51-1.146-4.02-3.93-4.14-4.11-.118-.179-.972-1.455-.925-2.74.046-1.285.716-1.891.955-2.144a.904.904 0 01.68-.3c.167.007.334.035.48.04.146.007.358-.072.548.458.19.531.645 1.836.703 1.968.058.133.094.288.005.459-.09.17-.136.278-.267.425-.13.148-.275.33-.392.443-.13.125-.266.261-.13.528.138.268.61 1.142 1.33 1.863.925.927 1.723 1.234 1.969 1.374.246.14.393.125.545-.043.152-.17.654-.739.83-.992.177-.256.343-.206.57-.11.226.096 1.435.776 1.681.917.246.14.41.212.47.323.058.112.04.634-.191 1.235z"/></symbol><symbol viewBox="0 0 23 28" id="soc-yt" xmlns="http://www.w3.org/2000/svg"><path d="M19.898 19.455v.715h-1.39v-.715c0-.714.233-1.07.697-1.07.46 0 .693.356.693 1.07zm3.105.477c0 1.805-.003 3.718-.403 5.472-.282 1.23-1.283 2.138-2.487 2.274-2.852.32-5.74.322-8.614.32-2.874.002-5.762 0-8.614-.32C1.681 27.542.68 26.635.4 25.404 0 23.65 0 21.737 0 19.932c0-1.806.004-3.719.405-5.472.281-1.232 1.281-2.14 2.486-2.275 2.852-.32 5.74-.322 8.614-.32 2.874-.002 5.761 0 8.614.32 1.204.136 2.205 1.043 2.486 2.275.4 1.753.399 3.666.399 5.472zM6.56 14.578H1.713v1.459H3.35v8.902h1.546v-8.902H6.56zm4.2 2.64H9.37v5.902c-.31.438-.6.654-.88.654-.185 0-.291-.11-.325-.327-.013-.046-.013-.216-.013-.544v-5.684h-1.39v6.104c0 .545.047.915.123 1.148.14.391.448.575.896.575.51 0 1.035-.311 1.588-.949v.842h1.391zm5.281 2.33c0-.73-.047-1.241-.14-1.552-.186-.578-.557-.871-1.111-.871-.511 0-.988.281-1.437.837v-3.384h-1.39V24.94h1.39v-.748c.465.578.943.855 1.437.855.554 0 .926-.294 1.111-.868.093-.327.14-.842.14-1.556zm5.247.188c0-.826-.14-1.43-.43-1.82-.39-.528-.943-.791-1.64-.791-.71 0-1.263.263-1.665.791-.295.39-.43.994-.43 1.82v2.703c0 .82.152 1.43.447 1.816.402.527.955.79 1.682.79.726 0 1.297-.276 1.681-.836a1.99 1.99 0 00.326-.839c.012-.14.03-.45.03-.9v-.205h-1.42c0 .561-.017.872-.03.948-.08.374-.279.561-.621.561-.477 0-.71-.357-.71-1.071v-1.369h2.78zm-6.637-.298v3.295c0 .697-.204 1.041-.605 1.041-.228 0-.46-.11-.693-.344v-4.706c.233-.23.465-.34.693-.34.401 0 .605.357.605 1.054zM7.22 6.226v4.238H5.662V6.226c-.14-.751-.452-1.851-.95-3.31-.33-.971-.672-1.946-1-2.916h1.639l1.106 4.109L7.518 0h1.575zm5.6 3.547c-.39.532-.935.799-1.64.799-.699 0-1.246-.267-1.634-.799-.299-.39-.44-1.005-.44-1.833V5.208c0-.833.141-1.442.44-1.837.388-.532.935-.8 1.635-.8.704 0 1.25.268 1.638.8.294.395.436 1.004.436 1.837V7.94c0 .828-.142 1.443-.436 1.833zm-.97-4.848c0-.722-.217-1.08-.67-1.08-.452 0-.67.358-.67 1.08v3.28c0 .722.218 1.083.67 1.083.453 0 .67-.361.67-1.083zm5.193 5.539v-.851c-.558.645-1.092.959-1.604.959-.452 0-.764-.185-.904-.58-.078-.236-.125-.61-.125-1.16V2.666h1.4v5.741c0 .332 0 .504.017.55.031.219.141.33.33.33.28 0 .575-.218.886-.661v-5.96h1.405v7.798z"/></symbol><symbol viewBox="0 0 21 21" id="tell" xmlns="http://www.w3.org/2000/svg"><path d="M13.878.956c.025.01.05.018.076.027a10.285 10.285 0 015.205 4.242 11.447 11.447 0 01.235.395 11.417 11.417 0 01.377.735l.05.11c.052.117.103.235.151.353l.04.101c.047.12.092.24.135.363l.04.115c.038.116.075.231.11.35.016.051.03.104.045.156.029.103.057.205.082.309.02.075.036.151.053.227a10.818 10.818 0 01.11.566c.009.051.018.102.025.153.022.146.04.294.056.44l.006.047c.087.85.07 1.722-.064 2.596l-.004.025c-.02.127-.043.253-.068.38l-.028.15c-.02.094-.043.189-.066.284-.018.077-.035.155-.056.232l-.012.052c-.019.07-.041.138-.062.208-.023.079-.044.157-.069.235-.032.102-.067.201-.102.301l-.06.17c-.046.124-.095.246-.145.368l-.035.085a10.04 10.04 0 01-.199.44 10.275 10.275 0 01-2.01 2.827c-.107.106-.216.21-.327.312l-.064.058a11.364 11.364 0 01-.621.516 10.417 10.417 0 01-.677.479l-.054.035a10.279 10.279 0 01-4.127 1.53l-.072.009c-.137.017-.274.034-.412.047-.053.005-.106.008-.16.012a9.377 9.377 0 01-.337.022c-.075.004-.149.004-.223.005-.079.002-.156.007-.235.007l-.07-.002-.078-.001a10.525 10.525 0 01-.423-.014l-.06-.003a10.264 10.264 0 01-3.934-1.046 10.815 10.815 0 01-.676-.366c-.045-.026-.09-.051-.134-.079a10.361 10.361 0 01-3.98-4.446h-.008a10.255 10.255 0 01-.928-3.401l-.015-.179a6.889 6.889 0 01-.028-.582c-.002-.074-.007-.147-.007-.222l.002-.068c0-.06.003-.12.005-.18.003-.115.005-.23.012-.345l.009-.12c.01-.138.02-.275.035-.411L.11 9.54c.084-.758.252-1.49.49-2.192l.023-.065c.075-.216.156-.43.245-.638l.021-.047a10.335 10.335 0 01.775-1.456c.054-.084.106-.169.162-.251.068-.1.139-.197.21-.294a11.333 11.333 0 01.361-.469c.044-.053.09-.103.134-.155a10.115 10.115 0 01.613-.658c.035-.034.068-.071.104-.106l.005.001A10.321 10.321 0 018.575.51l.001-.002.065-.01A10.496 10.496 0 019.798.366L9.96.359c.133-.006.267-.01.402-.01l.023-.001.064.001c.153.001.305.004.459.012l.048.003a10.173 10.173 0 011.782.257c.087.02.176.04.263.063l.062.015c.092.024.182.053.272.08.05.015.102.029.152.045.132.041.262.086.391.132zM7.252 4.96c-.255-.684-.538-.582-.734-.59-.196-.006-.419-.043-.643-.052a1.235 1.235 0 00-.91.388c-.321.325-1.22 1.108-1.28 2.765-.063 1.658 1.08 3.305 1.24 3.536.16.23 2.183 3.824 5.545 5.302 3.364 1.476 3.381 1.026 3.999.993.617-.033 2.017-.74 2.326-1.516.31-.776.334-1.45.255-1.594-.078-.144-.299-.237-.628-.417-.33-.182-1.95-1.06-2.254-1.183-.303-.124-.525-.188-.762.14-.236.328-.908 1.064-1.112 1.281-.204.218-.401.238-.731.057-.33-.181-1.398-.578-2.638-1.774-.964-.93-1.597-2.058-1.78-2.402-.184-.345-.002-.52.173-.682.156-.146.35-.381.526-.572.174-.19.236-.328.356-.549.12-.22.072-.419-.006-.59-.078-.172-.687-1.855-.942-2.54z"/></symbol><symbol viewBox="0 0 512 512" class="lsvg-inline--fa lfa-search lfa-w-16" id="zoom" xmlns="http://www.w3.org/2000/svg"><path d="M508.5 468.9L387.1 347.5c-2.3-2.3-5.3-3.5-8.5-3.5h-13.2c31.5-36.5 50.6-84 50.6-136C416 93.1 322.9 0 208 0S0 93.1 0 208s93.1 208 208 208c52 0 99.5-19.1 136-50.6v13.2c0 3.2 1.3 6.2 3.5 8.5l121.4 121.4c4.7 4.7 12.3 4.7 17 0l22.6-22.6c4.7-4.7 4.7-12.3 0-17zM208 368c-88.4 0-160-71.6-160-160S119.6 48 208 48s160 71.6 160 160-71.6 160-160 160z"/></symbol></svg>