<svg width="8" height="8" viewBox="0 0 8 8" fill="none" xmlns="http://www.w3.org/2000/svg">
<path d="M3.99985 4.73292L7.11498 7.84796C7.3176 8.05068 7.64522 8.05068 7.84785 7.84796C8.05047 7.64533 8.05047 7.31771 7.84785 7.11509L4.73272 3.99995L7.84785 0.884913C8.05047 0.682192 8.05047 0.354668 7.84785 0.152041C7.64522 -0.0506803 7.3176 -0.0506802 7.11498 0.152041L3.99985 3.26708L0.884722 0.152041C0.682096 -0.0506804 0.354477 -0.0506803 0.151851 0.152041C0.0507751 0.253022 0 0.385797 0 0.518477C0 0.651157 0.0507751 0.783837 0.151851 0.884913L3.26698 3.99995L0.151851 7.11509C0.0507751 7.21616 7.02457e-08 7.34884 7.02457e-08 7.48152C7.02457e-08 7.6142 0.0507751 7.74688 0.151851 7.84796C0.354477 8.05068 0.682096 8.05068 0.884722 7.84796L3.99985 4.73292Z" fill="#262728"/>
</svg>
