<svg xmlns="http://www.w3.org/2000/svg" width="24" height="24" viewBox="0 0 24 24"><g><g><path fill="#fff" d="M12 2.162c-3.204 0-3.584.012-4.85.07-1.169.053-1.804.249-2.227.413-.56.218-.96.478-1.38.898-.42.42-.68.82-.898 1.38-.164.422-.36 1.058-.413 2.228-.058 1.265-.07 1.645-.07 4.849s.012 3.584.07 4.849c.054 1.17.249 1.805.413 2.228.218.56.478.96.898 1.38.42.42.82.68 1.38.897.423.165 1.058.36 2.228.414 1.265.057 1.645.07 4.849.07s3.584-.013 4.849-.07c1.17-.054 1.805-.25 2.228-.414.56-.217.96-.477 1.38-.897.42-.42.68-.82.898-1.38.164-.423.36-1.058.413-2.228.058-1.265.07-1.645.07-4.85 0-3.203-.012-3.583-.07-4.848-.054-1.17-.249-1.806-.413-2.228a3.718 3.718 0 0 0-.898-1.38c-.42-.42-.82-.68-1.38-.898-.423-.164-1.058-.36-2.228-.413-1.265-.058-1.645-.07-4.849-.07 0 0 3.204 0 0 0zM12 0c3.259 0 3.668.014 4.947.072 1.278.058 2.15.261 2.913.558.79.307 1.459.717 2.126 1.384A5.886 5.886 0 0 1 23.37 4.14c.297.763.5 1.635.558 2.912C23.986 8.332 24 8.741 24 12c0 3.259-.014 3.667-.072 4.947-.059 1.278-.261 2.15-.558 2.913a5.883 5.883 0 0 1-1.384 2.126 5.885 5.885 0 0 1-2.126 1.384c-.763.296-1.635.5-2.913.557-1.28.059-1.688.073-4.947.073-3.26 0-3.668-.014-4.948-.073-1.277-.058-2.15-.26-2.912-.557a5.883 5.883 0 0 1-2.126-1.384A5.882 5.882 0 0 1 .63 19.86c-.297-.763-.5-1.635-.558-2.913C.014 15.667 0 15.26 0 12c0-3.26.014-3.668.072-4.948.059-1.277.261-2.15.558-2.912a5.885 5.885 0 0 1 1.384-2.126A5.884 5.884 0 0 1 4.14.63C4.903.333 5.775.13 7.052.072 8.332.014 8.741 0 12 0zm6.162 12a6.162 6.162 0 1 1-12.324 0 6.162 6.162 0 0 1 12.324 0zM16 12a4 4 0 1 0-8 0 4 4 0 0 0 8 0zm3.846-6.406a1.44 1.44 0 1 1-2.88 0 1.44 1.44 0 0 1 2.88 0z"/></g></g></svg>