<svg xmlns="http://www.w3.org/2000/svg" width="23" height="28" viewBox="0 0 23 28"><g><g><path fill="#fff" d="M19.898 19.455v.715h-1.39v-.715c0-.714.233-1.07.697-1.07.46 0 .693.356.693 1.07zm3.105.477c0 1.805-.003 3.718-.403 5.472-.282 1.23-1.283 2.138-2.487 2.274-2.852.32-5.74.322-8.614.32-2.874.002-5.762 0-8.614-.32C1.681 27.542.68 26.635.4 25.404c-.4-1.754-.4-3.667-.4-5.472 0-1.806.004-3.719.405-5.472.281-1.232 1.281-2.14 2.486-2.275 2.852-.32 5.74-.322 8.614-.32 2.874-.002 5.761 0 8.614.32 1.204.136 2.205 1.043 2.486 2.275.4 1.753.399 3.666.399 5.472zM6.56 14.578H1.713v1.459H3.35v8.902h1.546v-8.902H6.56zm4.2 2.64H9.37v5.902c-.31.438-.6.654-.88.654-.185 0-.291-.11-.325-.327-.013-.046-.013-.216-.013-.544v-5.684h-1.39v6.104c0 .545.047.915.123 1.148.14.391.448.575.896.575.51 0 1.035-.311 1.588-.949v.842h1.391zm5.281 2.33c0-.73-.047-1.241-.14-1.552-.186-.578-.557-.871-1.111-.871-.511 0-.988.281-1.437.837v-3.384h-1.39V24.94h1.39v-.748c.465.578.943.855 1.437.855.554 0 .926-.294 1.111-.868.093-.327.14-.842.14-1.556zm5.247.188c0-.826-.14-1.43-.43-1.82-.39-.528-.943-.791-1.64-.791-.71 0-1.263.263-1.665.791-.295.39-.43.994-.43 1.82v2.703c0 .82.152 1.43.447 1.816.402.527.955.79 1.682.79.726 0 1.297-.276 1.681-.836.17-.248.279-.528.326-.839.012-.14.03-.45.03-.9v-.205h-1.42c0 .561-.017.872-.03.948-.08.374-.279.561-.621.561-.477 0-.71-.357-.71-1.071v-1.369h2.78zm-6.637-.298v3.295c0 .697-.204 1.041-.605 1.041-.228 0-.46-.11-.693-.344v-4.706c.233-.23.465-.34.693-.34.401 0 .605.357.605 1.054zM7.22 6.226v4.238H5.662V6.226c-.14-.751-.452-1.851-.95-3.31-.33-.971-.672-1.946-1-2.916h1.639l1.106 4.109L7.518 0h1.575zm5.6 3.547c-.39.532-.935.799-1.64.799-.699 0-1.246-.267-1.634-.799-.299-.39-.44-1.005-.44-1.833V5.208c0-.833.141-1.442.44-1.837.388-.532.935-.8 1.635-.8.704 0 1.25.268 1.638.8.294.395.436 1.004.436 1.837V7.94c0 .828-.142 1.443-.436 1.833zm-.97-4.848c0-.722-.217-1.08-.67-1.08-.452 0-.67.358-.67 1.08v3.28c0 .722.218 1.083.67 1.083.453 0 .67-.361.67-1.083zm5.193 5.539v-.851c-.558.645-1.092.959-1.604.959-.452 0-.764-.185-.904-.58-.078-.236-.125-.61-.125-1.16V2.666h1.4v5.741c0 .332 0 .504.017.55.031.219.141.33.33.33.28 0 .575-.218.886-.661v-5.96h1.405v7.798z"/></g></g></svg>