<svg xmlns="http://www.w3.org/2000/svg" width="19" height="21" viewBox="0 0 19 21"><g><g><path fill="#fff" d="M18.586 4.963c.514 2.53.596 5.062-.019 7.59-.107.442-.27.866-.44 1.288-.64 1.589-1.901 2.43-3.475 2.902-1.24.37-2.514.534-3.799.634-.673.053-1.737.027-2.415.015-.575-.009-.42-.027-.79.355-.733.753-1.397 1.412-2.1 2.204-.235.266-.558.598-1.026 1.049 0-1.316-.005-2.575.004-3.834.001-.193-.053-.311-.232-.385-.194-.08-.376-.188-.57-.266C1.94 15.802.898 14.461.42 12.64.007 11.066-.046 9.464.035 7.852.09 6.758.23 5.679.518 4.619.922 3.132 1.837 2.06 3.166 1.316 4.297.683 5.527.346 6.8.175c2.512-.34 4.998-.18 7.45.46.976.254 1.885.653 2.66 1.314.934.796 1.437 1.84 1.676 3.014zM9.428 3.781c.41.034.813.118 1.21.22 1.506.386 2.676 1.185 3.287 2.669.316.766.475 1.568.53 2.391.014.214.117.327.328.325.208-.002.289-.143.3-.328.009-.165.001-.332.001-.498-.036-1.117-.394-2.32-1.057-3.212-1.132-1.52-2.603-2.1-4.558-2.193-.23-.011-.37.083-.383.326-.014.246.156.286.342.3zm3.333 3.587c.087.312.157.626.198.948.027.21-.024.493.322.503.238.006.301-.1.323-.516.03-.586-.172-1.368-.515-1.92-.734-1.179-1.8-1.674-3.164-1.804-.214-.02-.36.069-.394.291-.038.236.107.343.31.372.417.06.82.172 1.217.311.886.31 1.45.917 1.703 1.815zm-1.69-1.136c-.175-.085-.476-.18-.671-.17-.287.018-.446.143-.44.351.007.252.222.255.394.303.068.019.137.028.204.046.547.147.861.506.967 1.055.02.102.028.209.058.308.044.144.135.244.302.24.166-.002.26-.093.296-.245.018-.076.019-.155.032-.27-.088-.777-.424-1.269-1.142-1.618zm3.723 6.174a15.417 15.417 0 0 0-1.882-1.384c-.773-.48-1.343-.351-1.877.385-.025.036-.05.071-.078.105-.246.301-.552.42-.934.31-.416-.122-.786-.34-1.148-.57a5.303 5.303 0 0 1-2.104-2.484c-.266-.64-.142-1.055.414-1.46.071-.052.144-.102.21-.158.42-.35.517-.695.284-1.183A7.856 7.856 0 0 0 5.933 3.59a.973.973 0 0 0-.742-.275c-1.039.057-1.986 1.053-1.989 2.131-.01.288.06.603.183.905 1.692 4.185 4.681 7.085 8.818 8.842.3.127.62.207.948.115.907-.256 1.555-.822 1.934-1.678.213-.48.11-.883-.291-1.225z"/></g></g></svg>