<svg xmlns="http://www.w3.org/2000/svg" width="20" height="21" viewBox="0 0 20 21"><g><g><path fill="#fff" d="M20 10.23c0 5.648-4.396 10.229-9.82 10.229a9.476 9.476 0 0 1-4.745-1.273L-.001 21 1.77 15.51A10.504 10.504 0 0 1 .362 10.23C.362 4.58 4.758 0 10.18 0 15.604 0 20 4.58 20 10.23zm-9.82-8.517c-4.506 0-8.173 3.82-8.173 8.516a8.71 8.71 0 0 0 1.556 4.993l-1.02 3.163 3.14-1.048a7.896 7.896 0 0 0 4.497 1.408c4.508 0 8.175-3.82 8.175-8.516 0-4.695-3.667-8.516-8.175-8.516zm4.883 12.4c-.231.6-1.276 1.15-1.737 1.175-.46.025-.473.374-2.984-.77-2.51-1.146-4.02-3.93-4.14-4.11-.118-.179-.972-1.455-.925-2.74.046-1.285.716-1.891.955-2.144a.904.904 0 0 1 .68-.3c.167.007.334.035.48.04.146.007.358-.072.548.458.19.531.645 1.836.703 1.968.058.133.094.288.005.459-.09.17-.136.278-.267.425-.13.148-.275.33-.392.443-.13.125-.266.261-.13.528.138.268.61 1.142 1.33 1.863.925.927 1.723 1.234 1.969 1.374.246.14.393.125.545-.043.152-.17.654-.739.83-.992.177-.256.343-.206.57-.11.226.096 1.435.776 1.681.917.246.14.41.212.47.323.058.112.04.634-.191 1.235z"/></g></g></svg>