<svg xmlns="http://www.w3.org/2000/svg" width="35" height="20" viewBox="0 0 35 20"><g><g><path fill="#7e9cd6" d="M17.123 19.917h2.092s.631-.07.954-.418c.297-.32.288-.92.288-.92s-.041-2.813 1.261-3.227c1.285-.408 2.934 2.718 4.682 3.92 1.321.91 2.326.71 2.326.71l4.674-.065s2.445-.151 1.285-2.077c-.095-.157-.675-1.425-3.475-4.029-2.931-2.725-2.538-2.284.992-6.998 2.15-2.872 3.01-4.624 2.74-5.375-.255-.715-1.837-.526-1.837-.526l-5.262.033s-.39-.054-.68.12c-.282.17-.463.566-.463.566s-.834 2.22-1.944 4.11c-2.343 3.987-3.28 4.198-3.663 3.95-.892-.577-.669-2.317-.669-3.554 0-3.864.585-5.475-1.139-5.892-.572-.138-.993-.23-2.456-.245-1.878-.018-3.467.006-4.367.448-.598.294-1.06.948-.779.986.348.046 1.136.213 1.553.782.54.735.52 2.386.52 2.386s.31 4.548-.723 5.113c-.71.388-1.682-.403-3.771-4.02-1.07-1.853-1.879-3.901-1.879-3.901s-.156-.383-.434-.588C6.612.958 6.141.88 6.141.88l-5 .033S.39.933.113 1.26c-.245.291-.02.893-.02.893S4.01 11.33 8.443 15.955c4.066 4.24 8.681 3.962 8.681 3.962z"/></g></g></svg>