<svg xmlns="http://www.w3.org/2000/svg" width="21" height="21" viewBox="0 0 21 21"><g><g><path fill="#fff" d="M10.37.001a10.008 10.008 0 0 1 3.92.713c2.871 1.146 4.887 3.189 6.03 6.064.923 2.32.843 5.473-.1 7.7-1.238 2.923-3.474 5.07-6.634 6.064-.622.196-1.28.277-1.992.402l-.95.056-.302-.01c-.387-.024-.748-.01-1.087-.073-.39-.071-.748-.092-1.106-.183-.735-.187-1.4-.427-2.028-.704-2.797-1.235-4.769-3.6-5.711-6.704-.343-1.128-.561-2.973-.284-4.362C.26 8.3.36 7.656.583 7.08 1.86 3.79 3.852 1.822 7.144.55 7.785.302 8.501.21 9.254.074c.372-.024.744-.05 1.115-.073zm3.782 13.325V8.543 7.17c0-.175.042-.455-.018-.594-.116-.272-.954-.174-1.352-.174-.139 0-.351-.029-.457.018-.096.042-.122.123-.174.21a5.854 5.854 0 0 0-.986-.31c-.794-.171-1.732-.032-2.321.21-1.116.458-1.922 1.333-2.294 2.533-.1.32-.123.639-.183 1.015-.058.367-.06.89 0 1.262.052.321.08.636.165.924.352 1.191 1.056 2.096 2.23 2.46.243.076.477.093.767.137.384.06.867.019 1.197-.063.63-.157 1.046-.464 1.544-.723.033.225.096.607.265.704.164.094.772.037 1.024.037h2.156c.241 0 .744.056.932-.018.269-.107.566-.794.722-1.06.743-1.278 1.118-3.712.576-5.535-.681-2.286-1.934-3.775-4.048-4.618-.49-.195-1.028-.313-1.6-.43-.4-.08-.808-.039-1.251-.11-.492-.078-1.22-.001-1.636.083-.323.065-.62.085-.914.173-1.002.3-1.85.69-2.604 1.226-.396.281-.822.594-1.124.97-.653.811-1.263 1.64-1.617 2.761-.138.437-.203.9-.293 1.4l-.036.814c0 .933.126 1.713.347 2.414.754 2.386 2.41 3.931 4.797 4.683 1.162.365 3.057.553 4.533.293.375-.067.736-.085 1.078-.165.11-.026.227-.022.31-.073a.341.341 0 0 0 .128-.174c.038-.128.032-1.244-.009-1.345a.337.337 0 0 0-.192-.173c-.188-.06-.421.061-.575.1-.404.103-.836.125-1.27.202l-.722.046c-.257.04-.656.053-.923.008l-.594-.036c-.556-.1-1.069-.184-1.535-.366-1.693-.661-2.76-1.819-3.308-3.631-.157-.518-.325-1.55-.21-2.24.06-.363.077-.712.173-1.034a6.4 6.4 0 0 1 .695-1.591c.737-1.174 1.884-2 3.353-2.442.356-.107.741-.133 1.143-.202.583-.1 1.546-.006 2.028.1 1.777.396 3.078 1.203 3.737 2.699.54 1.225.773 3.006.375 4.582-.085.337-.224 1-.42 1.198h-1.609zM10.333 8.05c.796-.013 1.224.174 1.79.339l.01 3.923c-.481.255-.89.553-1.517.686a2.297 2.297 0 0 1-.786 0c-.863-.167-1.155-.692-1.334-1.537l-.045-.493c-.076-.47-.004-1.059.11-1.436.185-.621.542-1.111 1.114-1.344.196-.08.46-.06.658-.138z"/></g></g></svg>