<svg xmlns="http://www.w3.org/2000/svg" width="21" height="21" viewBox="0 0 21 21"><g><g><path fill="#fff" d="M13.878.956c.025.01.05.018.076.027a10.285 10.285 0 0 1 5.205 4.242 11.447 11.447 0 0 1 .235.395 11.417 11.417 0 0 1 .377.735l.05.11c.052.117.103.235.151.353l.04.101c.047.12.092.24.135.363l.04.115c.038.116.075.231.11.35.016.051.03.104.045.156.029.103.057.205.082.309.02.075.036.151.053.227a10.818 10.818 0 0 1 .11.566c.009.051.018.102.025.153.022.146.04.294.056.44l.006.047c.087.85.07 1.722-.064 2.596l-.004.025c-.02.127-.043.253-.068.38l-.028.15c-.02.094-.043.189-.066.284-.018.077-.035.155-.056.232l-.012.052c-.019.07-.041.138-.062.208-.023.079-.044.157-.069.235-.032.102-.067.201-.102.301l-.06.17c-.046.124-.095.246-.145.368l-.035.085a10.04 10.04 0 0 1-.199.44 10.275 10.275 0 0 1-2.01 2.827c-.107.106-.216.21-.327.312l-.064.058a11.364 11.364 0 0 1-.621.516 10.417 10.417 0 0 1-.677.479l-.054.035a10.279 10.279 0 0 1-4.127 1.53l-.072.009c-.137.017-.274.034-.412.047-.053.005-.106.008-.16.012a9.377 9.377 0 0 1-.337.022c-.075.004-.149.004-.223.005-.079.002-.156.007-.235.007l-.07-.002-.078-.001a10.525 10.525 0 0 1-.423-.014l-.06-.003a10.264 10.264 0 0 1-3.934-1.046 10.815 10.815 0 0 1-.676-.366c-.045-.026-.09-.051-.134-.079a10.361 10.361 0 0 1-3.98-4.446h-.008a10.255 10.255 0 0 1-.928-3.401l-.015-.179c-.008-.11-.016-.22-.021-.332-.004-.083-.006-.166-.007-.25-.002-.074-.007-.147-.007-.222l.002-.068c0-.06.003-.12.005-.18.003-.115.005-.23.012-.345l.009-.12c.01-.138.02-.275.035-.411L.11 9.54C.194 8.782.362 8.05.6 7.348l.023-.065c.075-.216.156-.43.245-.638l.021-.047a10.335 10.335 0 0 1 .775-1.456c.054-.084.106-.169.162-.251.068-.1.139-.197.21-.294a11.333 11.333 0 0 1 .361-.469c.044-.053.09-.103.134-.155a10.115 10.115 0 0 1 .613-.658c.035-.034.068-.071.104-.106l.005.001A10.321 10.321 0 0 1 8.575.51l.001-.002.065-.01A10.496 10.496 0 0 1 9.798.366L9.96.359c.133-.006.267-.01.402-.01l.023-.001.064.001c.153.001.305.004.459.012l.048.003a10.173 10.173 0 0 1 1.782.257c.087.02.176.04.263.063l.062.015c.092.024.182.053.272.08.05.015.102.029.152.045.132.041.262.086.391.132zM7.252 4.96c-.255-.684-.538-.582-.734-.59-.196-.006-.419-.043-.643-.052a1.235 1.235 0 0 0-.91.388c-.321.325-1.22 1.108-1.28 2.765-.063 1.658 1.08 3.305 1.24 3.536.16.23 2.183 3.824 5.545 5.302 3.364 1.476 3.381 1.026 3.999.993.617-.033 2.017-.74 2.326-1.516.31-.776.334-1.45.255-1.594-.078-.144-.299-.237-.628-.417-.33-.182-1.95-1.06-2.254-1.183-.303-.124-.525-.188-.762.14-.236.328-.908 1.064-1.112 1.281-.204.218-.401.238-.731.057-.33-.181-1.398-.578-2.638-1.774-.964-.93-1.597-2.058-1.78-2.402-.184-.345-.002-.52.173-.682.156-.146.35-.381.526-.572.174-.19.236-.328.356-.549.12-.22.072-.419-.006-.59-.078-.172-.687-1.855-.942-2.54z"/></g></g></svg>